<svg width="384" height="384" viewBox="0 0 384 384" fill="none" xmlns="http://www.w3.org/2000/svg">
<circle cx="192" cy="192" r="192" fill="url(#paint0_linear)"/>
<path d="M126.466 227C127.315 227 128.173 226.757 128.932 226.251L129.008 226.201C131.06 224.833 131.618 222.056 130.253 219.998C128.889 217.94 126.12 217.381 124.068 218.749L123.992 218.799C121.94 220.167 121.382 222.944 122.747 225.002C123.606 226.298 125.022 227 126.466 227Z" fill="white"/>
<path d="M303.513 218.066C297.076 215.037 290.182 213.502 283.023 213.502C274.846 213.502 267.142 215.551 260.398 219.158C249.977 210.246 236.665 203.594 221.809 199.797C222.171 199.567 222.535 199.342 222.893 199.104C234.823 191.179 242.754 179.686 245.099 167.366C249.854 166.097 253.995 162.846 256.594 158.184C260.008 152.058 260.114 144.755 256.869 139.127C256.055 137.715 254.545 136.845 252.912 136.845C252.91 136.845 252.908 136.845 252.907 136.845L246.098 136.852C246.512 121.242 242.076 107.973 233.144 98.2569C223.647 87.9255 209.145 82 193.356 82C179.633 82 166.046 86.5057 156.08 94.3622C144.808 103.248 138.601 115.992 138.601 130.245V136.858H132.018C130.385 136.858 128.876 137.727 128.062 139.137C124.735 144.901 124.801 152.316 128.234 158.489C130.728 162.974 134.717 166.114 139.313 167.366C141.191 177.379 146.75 186.76 155.435 194.347C157.732 196.355 160.188 198.171 162.761 199.785C154.307 201.846 146.496 204.722 139.434 208.394C137.2 209.556 136.334 212.301 137.501 214.526C138.315 216.079 139.904 216.969 141.55 216.969C142.261 216.969 142.983 216.802 143.658 216.452C152.644 211.779 163.025 208.507 174.553 206.698L180.316 222.337L171.169 269.716C171.014 270.518 171.079 271.347 171.357 272.115L174.697 281.346C161.02 280.592 147.587 278.895 134.771 276.308V258.407C134.771 255.897 132.728 253.863 130.208 253.863C127.688 253.863 125.645 255.898 125.645 258.407V274.292C119.696 272.86 113.905 271.233 108.317 269.414C109.226 257.766 112.624 247.4 118.437 238.557C119.817 236.457 119.227 233.64 117.119 232.265C115.011 230.891 112.183 231.478 110.802 233.578C103.509 244.67 99.54 257.75 99.003 272.454C98.9301 274.453 100.178 276.264 102.075 276.916C125.772 285.058 153.118 289.837 181.153 290.735C181.159 290.735 181.165 290.735 181.171 290.735C184.539 290.84 187.95 290.892 191.308 290.892L192.404 290.891L193.532 290.892C196.89 290.892 200.301 290.84 203.67 290.735C203.675 290.735 203.68 290.735 203.686 290.735C216.908 290.312 229.97 289.025 242.577 286.927C246.889 293.658 252.903 299.325 260.228 303.263C267.186 307.017 275.069 309 283.023 309C309.478 309 331 287.577 331 261.245C331 242.867 320.211 225.918 303.513 218.066ZM196.618 217.413H188.223L184.755 208C187.227 208.371 189.711 208.57 192.186 208.585C192.289 208.586 192.391 208.586 192.494 208.586C195.013 208.586 197.553 208.385 200.088 208L196.618 217.413ZM248.614 153.772C248.17 154.568 247.265 155.935 245.829 157.054V145.942L249.844 145.938C250.421 148.415 250.002 151.282 248.614 153.772ZM147.727 130.245C147.727 104.813 171.236 91.0899 193.356 91.0899C206.591 91.0899 218.64 95.9395 226.413 104.395C233.751 112.376 237.365 123.539 236.967 136.858H202.359C186.433 136.858 173.98 132.141 164.286 122.438C163.412 121.563 162.241 121.099 161.049 121.099C160.456 121.099 159.857 121.215 159.287 121.452C157.575 122.167 156.468 123.843 156.487 125.692C156.527 129.399 155.638 132.193 153.846 133.997C152.133 135.721 149.704 136.451 147.727 136.751V130.245ZM136.218 154.085C134.795 151.527 134.402 148.54 135.058 145.948H138.6V156.979C137.381 155.966 136.608 154.788 136.218 154.085ZM147.727 159.755V145.908C151.446 145.544 156.475 144.275 160.334 140.39C162.02 138.693 163.306 136.686 164.187 134.385C174.57 142.152 187.139 145.947 202.359 145.947H236.702V159.755C236.702 160.854 236.642 161.952 236.527 163.046C236.524 163.074 236.521 163.102 236.519 163.13C235.34 173.997 228.541 184.426 217.828 191.542C210.103 196.676 201.118 199.496 192.495 199.496C192.412 199.496 192.327 199.495 192.243 199.495C187.843 199.467 183.516 198.769 179.393 197.515C179.329 197.487 179.263 197.461 179.198 197.436C179.197 197.436 179.196 197.436 179.196 197.435C179.07 197.387 178.942 197.345 178.812 197.308C178.794 197.303 178.777 197.297 178.76 197.293C178.664 197.266 178.568 197.245 178.47 197.225C161.204 191.588 147.727 176.215 147.727 159.755ZM192.404 281.801L191.308 281.803C189.065 281.803 186.798 281.779 184.537 281.731L180.368 270.208L188.807 226.503H196.034L204.472 270.208L200.304 281.731C198.042 281.779 195.775 281.803 193.533 281.803L192.404 281.801ZM210.143 281.347L213.483 272.115C213.761 271.347 213.826 270.518 213.671 269.716L204.524 222.339L210.296 206.679C226.577 209.315 241.268 215.513 252.498 224.445C241.853 233.21 235.059 246.452 235.059 261.245C235.059 267.223 236.178 273.028 238.262 278.419C229.088 279.846 219.674 280.824 210.143 281.347ZM283.023 299.911C276.582 299.911 270.202 298.306 264.568 295.267C257.865 291.663 252.516 286.273 248.982 279.871C248.964 279.836 248.945 279.802 248.927 279.767C245.869 274.187 244.185 267.845 244.185 261.245C244.185 239.932 261.608 222.592 283.023 222.592C288.824 222.592 294.406 223.834 299.616 226.285C313.137 232.644 321.874 246.367 321.874 261.246C321.874 282.565 304.445 299.911 283.023 299.911Z" fill="#EDF0F7"/>
<path d="M285.9 256.306H299.777V262.287H285.9V278.01H279.543V262.287H265.666V256.306H279.543V241.779H285.9V256.306Z" fill="#EDF0F7"/>
<defs>
<linearGradient id="paint0_linear" x1="384" y1="80.5161" x2="1.67017e-05" y2="303.484" gradientUnits="userSpaceOnUse">
<stop stop-color="#4C8BF5"/>
<stop offset="1" stop-color="#0025A7"/>
</linearGradient>
</defs>
</svg>
